<?xml version="1.0" standalone="no"?>
<!DOCTYPE svg PUBLIC "-//W3C//DTD SVG 20010904//EN"
 "http://www.w3.org/TR/2001/REC-SVG-20010904/DTD/svg10.dtd">
<svg version="1.0" xmlns="http://www.w3.org/2000/svg"
 width="700.000000pt" height="700.000000pt" viewBox="0 0 700.000000 700.000000"
 preserveAspectRatio="xMidYMid meet">
<metadata>
Created by potrace 1.11, written by Peter Selinger 2001-2013
</metadata>
<g transform="translate(0.000000,700.000000) scale(0.100000,-0.100000)"
fill="#000000" stroke="none">
<path d="M1257 6944 c-1 -1 -27 -5 -57 -8 -63 -7 -166 -54 -218 -100 -19 -17
-53 -58 -74 -91 -155 -239 -42 -551 231 -635 62 -20 93 -20 885 -19 886 1 855
-1 955 53 130 70 224 244 215 398 -12 188 -151 350 -336 389 -34 8 -305 12
-825 13 -426 0 -775 0 -776 0z"/>
<path d="M2225 5429 c-81 -6 -101 -12 -173 -47 -129 -61 -232 -229 -232 -376
0 -94 47 -211 117 -292 33 -38 95 -79 162 -106 l66 -27 1105 2 1105 2 76 37
c107 53 179 129 218 234 88 232 -42 491 -279 558 -48 14 -186 16 -1075 18
-561 2 -1051 0 -1090 -3z"/>
<path d="M3130 3913 c-86 -13 -175 -59 -238 -124 -89 -91 -127 -193 -119 -325
5 -92 37 -174 96 -245 40 -48 127 -105 197 -129 55 -19 97 -20 1389 -20 1451
0 1381 -3 1482 56 56 32 134 113 161 165 41 83 51 130 49 220 -3 77 -7 95 -39
161 -21 40 -58 95 -83 121 -50 50 -143 101 -213 116 -40 8 -2624 12 -2682 4z"/>
<path d="M2175 2396 c-191 -47 -325 -218 -326 -416 0 -25 2 -54 4 -65 16 -67
22 -84 40 -120 65 -124 180 -208 312 -229 49 -8 2098 -9 2140 -1 151 28 281
140 331 284 52 151 5 332 -113 441 -62 58 -95 76 -177 101 -55 17 -127 18
-1110 18 -797 -1 -1063 -4 -1101 -13z"/>
<path d="M1199 888 c-114 -14 -244 -101 -303 -202 -123 -210 -46 -471 176
-595 84 -46 93 -47 963 -45 735 1 825 3 865 18 215 80 331 285 283 500 -33
144 -139 260 -288 311 -46 16 -116 18 -845 19 -438 1 -821 -2 -851 -6z"/>
</g>
</svg>
